<?xml version="1.0" encoding="utf-8"?>
<!-- Generator: Adobe Illustrator 26.0.2, SVG Export Plug-In . SVG Version: 6.00 Build 0)  -->
<svg version="1.1" id="Layer_1" xmlns="http://www.w3.org/2000/svg" xmlns:xlink="http://www.w3.org/1999/xlink" x="0px" y="0px"
	 viewBox="0 0 205 59" style="enable-background:new 0 0 205 59;" xml:space="preserve">
<style type="text/css">
	.st0{fill-rule:evenodd;clip-rule:evenodd;fill:#EED9C3;}
	.st1{fill:#353535;}
	.st2{fill-rule:evenodd;clip-rule:evenodd;fill:#A78347;}
	.st3{fill-rule:evenodd;clip-rule:evenodd;fill:#E3B261;}
	.st4{fill-rule:evenodd;clip-rule:evenodd;fill:#D4D4D4;}
	.st5{fill-rule:evenodd;clip-rule:evenodd;fill:#D5D5D5;}
	.st6{fill-rule:evenodd;clip-rule:evenodd;fill:#E6E6E6;}
	.st7{fill-rule:evenodd;clip-rule:evenodd;fill:#353535;}
	.st8{fill:#FFFFFF;}
</style>
<path class="st0" d="M8.7,34.7l4.5-15.4H31l4.5,15.4H8.7z"/>
<ellipse class="st1" cx="27.8" cy="27.1" rx="1.3" ry="1.2"/>
<path class="st2" d="M19.4,25.7c0-0.4-0.4-0.8-0.8-0.8c-1,0-2.7,0-3.8,0c-0.4,0-0.8,0.4-0.8,0.8c0,0.7,0,1.7,0,2.4
	c0,0.7,0.5,1.2,1.2,1.2c0.4,0,0.9,0,1.4,0c0.7,0,1.4-0.3,2-0.8c0.5-0.5,0.8-1.2,0.8-1.9C19.4,26.3,19.4,26,19.4,25.7z"/>
<path class="st3" d="M35,4.5L43.9,0L39,18l-4,4V4.5z"/>
<path class="st3" d="M8.9,4.5L0,0l4.9,18l4,4V4.5z"/>
<path class="st3" d="M35.4,12.7c0,0-6.7-4.4-13.4-4.4S8.6,12.7,8.6,12.7v13.2l1.8,3.5c1.3-4.9,7.1-6.9,11.1-3.9l0.5,0.4l0.5-0.4
	c4-3,9.8-1,11.1,3.9l1.8-3.5C35.4,25.9,35.4,12.7,35.4,12.7z"/>
<path class="st4" d="M17.6,32.5L14,53.2l-4.9-3.5l4-15L17.6,32.5z"/>
<path class="st5" d="M26.5,32.5l3.6,20.7l4.9-3.5l-4-15L26.5,32.5z"/>
<path class="st6" d="M8.7,25.9L5.1,39.1l4.5,8.8l3.6-13.2L8.7,25.9z"/>
<path class="st6" d="M35.4,25.9L39,39.1l-4.5,8.8L31,34.7L35.4,25.9z"/>
<path class="st6" d="M17.6,32.5l-4,21.5l8.5,4.4l8.5-4.4l-4-21.5l-4.1-2l-0.3-0.2L17.6,32.5z"/>
<path class="st7" d="M23.7,33.4h-3.1c0,0,0,0.5,0,1.1c0,0.4,0.2,0.8,0.5,1.1s0.7,0.5,1.1,0.5l0,0c0.4,0,0.8-0.2,1.1-0.5
	c0.3-0.3,0.5-0.7,0.5-1.1C23.7,33.9,23.7,33.4,23.7,33.4z"/>
<path class="st8" d="M68.8,20.4l-1.1,0.1c-0.3,0-0.6,0-1,0c-0.2,0-0.4,0.2-0.6,0.2l-0.5-0.2l-2.3-0.1l-0.1,2l0.3,0.3H65
	c0.1,0,0.2,0,0.4-0.1l0.1-0.1l0.5,0.1l0.1,1L66,25.1l0.1,1.1L66,31.1l0,3.2l0.2,0.2L65.8,36v1.8l1.3,0.2l0.7-0.1l0.7-0.4l-0.2-1.7
	v-4.5L68,30.9l0,0l0.2-1.4v-1.8v-0.4c0-0.2,0-0.4,0-0.6c0-0.1,0-0.7,0-1v-1.8l-0.1-0.5l0.1-1H69h0.7l0.2,0.1H71l0.1-1.1l-0.1-1
	L68.8,20.4z M73.3,34v1.5l0.3,0.4l-0.4,0.5L73.1,38l1.5,0.1h1v-0.9l-0.1-1.1l-0.1-1.3v-0.1l0.1-4.2l1.9-0.8l0,0l1.4-0.3v0.4l0.1,0.3
	v3.7l0.4,0.4L79,34.5l-0.2,2.7l0.3,0.8h1.4h0.9v-1.3l-0.2-0.6V33v-4.3v-0.5L81,27.1l0.1-2.3l-0.2-0.7l0.2-0.3v-0.9l0,0l0.1-1.4
	l0.1-1.2h-1.4H79L78.8,21l0.1,1v2.2l0.1,2.2V27l-0.3,0.1l-0.5,0.2l-1,0.4L77,28l-0.4-0.1l-1,0.4l0,0L75.4,26l0.1-1.6l-0.3-0.2
	l0.3-0.5l0.1-1.5l0.1-1.7l-2.1-0.3L73,20.6l0.2,1.5l-0.1,0.5l0.1,1.6l0.2,1.5L73.3,28l0.2,2.7L73.3,34z M90.8,22.6v-1.3v-0.9h-2.4
	l-0.9,0.2l-0.3-0.2h-1.4l-1.1,0.1l0.1,1.7l0.3,0.3l-0.3,0.4v1.2V26v1.8l-0.1,0.9l0.2,2.4l-0.1,0.2v1.3v0.6l0.2,0.3L84.8,34v1.1v0.3
	L84.7,37l0.1,1h1.8l0.2-0.1h0.8L89,38h1.6l0.6-0.2l0.1-0.9v-1.2h-1.2l-0.6,0.2h-1.9h-0.2h-0.2v-2.3l0,0l0.1-0.2L87,32.6l0.1-2.5h0.4
	H89h1.2v-1l0.1-0.7L90,27.9L88.8,28h-0.9H87v-0.9l-0.2-0.2l0.3-0.4l0.1-0.7v-2.4v-0.6v-0.3h0.2h1.3l0.4-0.1h0.1l0.6,0.2H90.8z
	 M102.3,20.3h-0.2h-0.9v0.2l-0.1,0.7l-0.1,0.1l-1.3,3.2l0.1,0.3l-0.4,0.3L98,28.3l-0.2,0.1v1.5l0.6,1.2l0.9,2l0.7,1.5h0.3l-0.1,0.4
	l0.8,2.1v0.8h2.2v-0.3l0.3-0.8l1.3-3.1l0.6-1.2v-0.4l0.2-0.2l1.2-2.4l0.1-1.3l-0.8-1.8l-0.6-1.4h-0.2l-0.1-0.6l-1.2-3l-0.5-1.3
	L102.3,20.3z M102.4,35l-1.1-2.8l-0.5-1l-0.5-0.3l0.2-0.3l-0.2-0.7l-0.3-0.8v-0.3l0.8-2.1l-0.2-0.4l0.3-0.1l1.3-3.5l0.1,0.5l0.6,1.5
	l0.4,0.3l-0.2,0.3l0.9,2.4l0.3,0.8l0.2,0.6l-1.2,2.9v0.4l0,0l-0.3,0.3l-0.8,2.5L102.4,35z M113.2,35.7L114,34l2.5-3.8l0.4-0.7v-1.8
	l-0.4-0.6l0,0l-1.8-2.4l-0.6-1.1l-0.8-0.8L113,22l-1.5-2l-1.3,0.4l-1,0.3v0.9l0.1,1.2l0.2,0.3l-0.2,0.5v6.3l0.1,0.9l-0.1,5.4l0,0
	v1.6l1.6,0.2l0.8,0.2L113.2,35.7z M111.5,26.7l-0.1-3.5l0.1,0.2l2.4,3.8l0.5,0.4l0.1,0.6l0.4,0.6l-0.4,0.7l-0.8,1.3l-1,1.9l0.2,0.2
	l-0.4,0.2l-1.1,1.7l0,0v-1.3l0.1-4.8l-0.4-1.1L111.5,26.7z M119.4,27.6l-0.1,1.3l-0.1,0.7v4.5V35l0.3,0.4l-0.3,0.5L119,38h1.1h0.5
	l1.1-0.3v-0.9v-0.5v-0.4v-6.6l-0.3-0.2l0.2-0.5V28l-0.1-0.9l0.1-1.2l0.1-3.1l0.1-0.6l0.1-1.8l-1.6-0.1l-1.1,0.1l0.1,1.2l0.2,0.1
	l-0.2,0.4l0.1,4.8L119.4,27.6z M133.1,35.9v-0.8l-0.2-5.3l-0.3-0.8l0.2-1l0.2-5.9v-1.6l-1-0.2h-1.4v1.9l0.2,0.3l-0.2,0.7v2.1
	l-0.8-1.3l-0.2-0.1l-0.6-1l-2.2-3l-1.9,0.5v1.2l0.1,2.5l0.1,1.4l-0.1,5l0.2,0.5l-0.2,0.7l-0.1,3.4v0.4l0.1,0.2l-0.2,1.9l1,0.2h1.4
	v-1.5l-0.1-0.3v-2.5l-0.2-0.9l0.1-0.9v-5.5l-0.3-0.3l0,0L127,25v-1.3l0.6,0.9l1,1.4l0.7,0.8l0.3,0.5l0.3,0.4l0.4,0.6v2.5l0.1,0.5
	l-0.1,0.1v2.3V36v1.9h0.8h1.3l0.3-0.8L133.1,35.9z M147.4,28.8l0.8-0.7l0.7-0.9v-1.7l-2.5-2.6l-0.5-0.2l-0.1-0.4l-2.2-2.2l-0.8,0.3
	l-1.2,0.5v1.6l0.1,1v3.9v0.1v6l0.3,0.3l-0.2,0.7l-0.3,3.4l1.4,0.1l1.2-0.1l-0.1-3l-0.4-0.3L144,34v-1.7l0.2-0.2l1.6-1.8L147.4,28.8z
	 M144.1,27.1l-0.3-0.5l0.2-0.7v-1.2V23l1.4,1.6l0.2,0.1l0.2,0.3l1,1.2l-0.4,0.6l-0.2,0.6l-0.3-0.1l-1.2,1.4l-0.7,0.7v-2.3H144.1z
	 M153.5,30.6l1,1.9l0.2,0.6l0.9,1.7l0.3,0.1v0.4l0.8,1.9l0.6,0.9l1.9-1.1v-0.7l-0.8-0.8l-0.4-0.9l0,0l-0.3-0.7l-0.1-0.1v-0.3l-1-1.6
	c-0.2-0.2-0.3-0.4-0.5-0.6V31c-0.1-0.3-0.4-0.7-0.6-1l0.7-0.9l0.4-0.5l0.8-0.9l1.1-1.3l0.2-1.4l-1.2-1.1l-0.4,0.1l-0.1-0.6l-4-3.4
	l-1.9,0.8l0.1,2.1l0.1,4.6l-0.2,0.5v1.2l0.1,2.8v0.9l0.2,0.3l-0.4,0.9l-0.1,3.8l1.6,0.1l1-0.4v-2l-0.1-0.2l-0.1-2.4v-2.6L153.5,30.6
	z M153.4,28.4l-0.1-2.1V26v-0.1l-0.1-0.4l0.2-0.5v-0.2V23l2.2,2.2l0.2,0.1l0.5,0.6l-0.3,0.3c-0.3,0.4-0.9,1.2-1.2,1.6l-1.2,1.5
	l-0.2,0.1L153.4,28.4z M164.3,20.3h-0.2h-0.9v0.2l-0.1,0.7l-0.1,0.1l-1.3,3.2l0.1,0.3l-0.4,0.3l-1.3,3.1l-0.2,0.1v1.5l0.6,1.2l0.9,2
	l0.7,1.5h0.3l-0.1,0.4l0.8,2.1v0.8h2.2v-0.3l0.3-0.8l1.3-3.1l0.6-1.2V32l0.2-0.2l1.2-2.4l0.1-1.3l-0.8-1.8l-0.6-1.4h-0.2l-0.1-0.6
	l-1.2-3l-0.5-1.3L164.3,20.3z M164.4,35l-1.1-2.8l-0.5-1l-0.5-0.3l0.2-0.3l-0.2-0.7l-0.3-0.8v-0.3l0.8-2.1l-0.2-0.4l0.3-0.1l1.3-3.5
	l0.1,0.5l0.6,1.5l0.4,0.3l-0.2,0.3l0.9,2.4l0.3,0.8l0.2,0.6l-1.2,2.9v0.4l0,0l-0.3,0.3l-0.8,2.5L164.4,35z M171.7,27.6l-0.1,1.3v1.5
	v0.3v0.9l-0.1,2.6v0.2l-0.4,0.5l-1.1,0.7l-1.1,0.4v1.2l1.3,1l1.8-1.4v-0.5l0.6-0.1l0.8-0.7L174,35l-0.3-4.1l-0.2-0.7l0.3-0.2
	l-0.1-6.7l0.3-2.1l-0.3-0.8h-2.3v1.3l0.4,0.2l-0.3,0.4l0.1,4.1L171.7,27.6z M183.5,22.6v-1.3v-0.9h-2.4l-0.9,0.2l-0.3-0.2h-1.4
	l-1.1,0.1l0.1,1.7l0.3,0.3l-0.3,0.4v1.2V26v1.8l-0.1,0.9l0.2,2.4l-0.1,0.2v1.3v0.6l0.2,0.3l-0.3,0.6v1.1v0.3l-0.1,1.6l0.1,1h1.8
	l0.2-0.1h0.8l1.4,0.1h1.6l0.6-0.2l0.1-0.9v-1.2h-1.2l-0.6,0.2h-1.9H180h-0.2v-2.3l0,0l0.1-0.2l-0.1-0.7l0.1-2.5h0.4h1.5h1.2v-1
	l0.1-0.7l-0.3-0.6l-1.2,0.1h-0.9h-0.9v-0.9l-0.2-0.2l0.3-0.4l0.1-0.7v-2.4v-0.6v-0.3h0.2h1.3l0.4-0.1h0.1l0.6,0.2L183.5,22.6
	L183.5,22.6z M185.4,30.9l0.9,1.6l1.1,1l-0.2,0.4l1.8,2.8V37l0.8,1.3l0.8-0.5l1.2-1l-0.6-0.9l-1.2-1.6l-1.1-1.9L188,31l-0.2-0.5
	l-0.3-0.3l-0.2-0.5l-0.4-0.7l0.3-0.6l0.5-0.8l0.8-1.2l1.4-2.1l0.1-0.6l0.4-0.3l0.7-0.9l0.7-1.2L190,20l-0.8,1v0.2l-1.3,2.2v0.1
	l-0.6,1V25l-0.9,0.8l-1.6,2.6v1.5L185.4,30.9z M198.1,20.4l-1.1,0.1c-0.3,0-0.6,0-1,0c-0.2,0-0.4,0.2-0.6,0.2l-0.5-0.2l-2.3-0.1
	l-0.1,2l0.3,0.3h1.5c0.1,0,0.2,0,0.4-0.1l0.1-0.1l0.5,0.1l0.1,1l-0.1,1.5l0.1,1.1l-0.1,4.9l-0.1,3.4l0.2,0.2l-0.4,1.5V38l1.3,0.2
	l0.7-0.1l0.7-0.4l-0.2-1.7v-4.5l-0.3-0.5l0,0l0.2-1.4v-1.8v-0.4c0-0.2,0-0.4,0-0.6c0-0.1,0-0.7,0-1V24l-0.1-0.5l0.1-1h0.7h0.7
	l0.2,0.1h1.1l0.1-1.1l-0.1-1L198.1,20.4z"/>
</svg>
