<?xml version="1.0" encoding="utf-8"?>
<!-- Generator: Adobe Illustrator 26.0.2, SVG Export Plug-In . SVG Version: 6.00 Build 0)  -->
<svg version="1.1" xmlns="http://www.w3.org/2000/svg" xmlns:xlink="http://www.w3.org/1999/xlink" x="0px" y="0px"
	 viewBox="0 0 231.6 58.8" style="enable-background:new 0 0 231.6 58.8;" xml:space="preserve">
<style type="text/css">
	.st0{opacity:0.4;}
	.st1{fill-rule:evenodd;clip-rule:evenodd;fill:#FFDCAA;stroke:#000000;stroke-width:0.25;stroke-miterlimit:10;}
	.st2{fill:#353535;stroke:#000000;stroke-width:0.25;stroke-miterlimit:10;}
	.st3{fill-rule:evenodd;clip-rule:evenodd;fill:#353535;stroke:#000000;stroke-width:0.25;stroke-miterlimit:10;}
	.st4{fill-rule:evenodd;clip-rule:evenodd;fill:#FFB95F;stroke:#000000;stroke-width:0.25;stroke-miterlimit:10;}
	.st5{fill-rule:evenodd;clip-rule:evenodd;fill:#1FFF26;stroke:#000000;stroke-width:0.25;stroke-miterlimit:10;}
	.st6{fill-rule:evenodd;clip-rule:evenodd;fill:#FF410A;stroke:#000000;stroke-width:0.25;stroke-miterlimit:10;}
	.st7{fill-rule:evenodd;clip-rule:evenodd;fill:#0005B4;stroke:#000000;stroke-width:0.25;stroke-miterlimit:10;}
	.st8{fill-rule:evenodd;clip-rule:evenodd;fill:#FCFF4A;stroke:#000000;stroke-width:0.25;stroke-miterlimit:10;}
	.st9{fill:url(#SVGID_1_);}
</style>
<g id="Layer_2">
	<path class="st0" d="M228.7,47.7H2.9c-1.6,0-2.9-1.3-2.9-2.9V12.3c0-1.6,1.3-2.9,2.9-2.9h225.8c1.6,0,2.9,1.3,2.9,2.9v32.6
		C231.6,46.4,230.3,47.7,228.7,47.7z"/>
</g>
<g id="Layer_1">
	<path class="st1" d="M21.4,34.9l4.5-15.4h17.8l4.5,15.4H21.4z"/>
	<ellipse class="st2" cx="40.5" cy="27.3" rx="1.3" ry="1.2"/>
	<path class="st3" d="M32.1,25.9c0-0.4-0.4-0.8-0.8-0.8c-1,0-2.7,0-3.8,0c-0.4,0-0.8,0.4-0.8,0.8c0,0.7,0,1.7,0,2.4
		c0,0.7,0.5,1.2,1.2,1.2c0.4,0,0.9,0,1.4,0c0.7,0,1.4-0.3,2-0.8c0.5-0.5,0.8-1.2,0.8-1.9C32.1,26.5,32.1,26.2,32.1,25.9z"/>
	<path class="st3" d="M47.7,4.7l8.9-4.5l-4.9,18l-4,4V4.7z"/>
	<path class="st3" d="M21.6,4.7l-8.9-4.5l4.9,18l4,4V4.7z"/>
	<path class="st3" d="M48.1,12.9c0,0-6.7-4.4-13.4-4.4s-13.4,4.4-13.4,4.4v13.2l1.8,3.5c1.3-4.9,7.1-6.9,11.1-3.9l0.5,0.4l0.5-0.4
		c4-3,9.8-1,11.1,3.9l1.8-3.5C48.1,26.1,48.1,12.9,48.1,12.9z"/>
	<path class="st4" d="M30.3,32.7l-3.6,20.7l-4.9-3.5l4-15L30.3,32.7z"/>
	<path class="st5" d="M39.2,32.7l3.6,20.7l4.9-3.5l-4-15L39.2,32.7z"/>
	<path class="st6" d="M21.4,26.1l-3.6,13.2l4.5,8.8l3.6-13.2L21.4,26.1z"/>
	<path class="st7" d="M48.1,26.1l3.6,13.2l-4.5,8.8l-3.5-13.2L48.1,26.1z"/>
	<path class="st8" d="M30.3,32.7l-4,21.5l8.5,4.4l8.5-4.4l-4-21.5l-4.1-2l-0.3-0.2L30.3,32.7z"/>
	<path class="st3" d="M36.4,33.6h-3.1c0,0,0,0.5,0,1.1c0,0.4,0.2,0.8,0.5,1.1s0.7,0.5,1.1,0.5l0,0c0.4,0,0.8-0.2,1.1-0.5
		c0.3-0.3,0.5-0.7,0.5-1.1C36.4,34.1,36.4,33.6,36.4,33.6z"/>
	<g>
		<linearGradient id="SVGID_1_" gradientUnits="userSpaceOnUse" x1="75.9361" y1="29.3384" x2="212.9361" y2="29.3384">
			<stop  offset="0" style="stop-color:#F51414"/>
			<stop  offset="0.223" style="stop-color:#FFCE00"/>
			<stop  offset="0.4519" style="stop-color:#00FF42"/>
			<stop  offset="0.6974" style="stop-color:#3F86FF"/>
			<stop  offset="1" style="stop-color:#D355FF"/>
		</linearGradient>
		<path class="st9" d="M81.5,20.6l-1.1,0.1c-0.3,0-0.6,0-1,0c-0.2,0-0.4,0.2-0.6,0.2l-0.5-0.2L76,20.6l-0.1,2l0.3,0.3h1.5
			c0.1,0,0.2,0,0.4-0.1l0.1-0.1l0.5,0.1l0.1,1l-0.1,1.5l0.1,1.1l-0.1,4.9v3.2l0.2,0.2l-0.4,1.5V38l1.3,0.2l0.7-0.1l0.7-0.4L81,36
			v-4.5l-0.3-0.4l0,0l0.2-1.4v-1.8v-0.4c0-0.2,0-0.4,0-0.6c0-0.1,0-0.7,0-1v-1.8l-0.1-0.5l0.1-1h0.8h0.7l0.2,0.1h1.1l0.1-1.1l-0.1-1
			L81.5,20.6z M86,34.2v1.5l0.3,0.4l-0.4,0.5l-0.1,1.6l1.5,0.1h1v-0.9l-0.1-1.1L88.1,35v-0.1l0.1-4.2l1.9-0.8l0,0l1.4-0.3V30
			l0.1,0.3V34l0.4,0.4l-0.3,0.3l-0.2,2.7l0.3,0.8h1.4h0.9v-1.3l-0.2-0.6v-3.1v-4.3v-0.5l-0.2-1.1l0.1-2.3l-0.2-0.7l0.2-0.3v-0.9l0,0
			l0.1-1.4l0.1-1.2h-1.4h-0.9l-0.2,0.7l0.1,1v2.2l0.1,2.2v0.6l-0.3,0.1l-0.5,0.2l-1,0.4l-0.2,0.3l-0.4-0.1l-1,0.4l0,0l-0.2-2.3
			l0.1-1.6l-0.3-0.2l0.3-0.5l0.1-1.5l0.1-1.7l-2.1-0.3l-0.6,0.4l0.2,1.5l-0.1,0.5l0.1,1.6l0.2,1.5L86,28.2l0.2,2.7L86,34.2z
			 M103.5,22.8v-1.3v-0.9h-2.4l-0.9,0.2l-0.3-0.2h-1.4l-1.1,0.1l0.1,1.7l0.3,0.3l-0.3,0.4v1.2v1.9V28l-0.1,0.9l0.2,2.4l-0.1,0.2v1.3
			v0.6l0.2,0.3l-0.2,0.5v1.1v0.3l-0.1,1.6l0.1,1h1.8l0.2-0.1h0.8l1.4,0.1h1.6l0.6-0.2l0.1-0.9v-1.2h-1.2l-0.6,0.2h-1.9h-0.2h-0.2
			v-2.3l0,0l0.1-0.2l-0.3-0.8l0.1-2.5h0.4h1.5h1.2v-1l0.1-0.7l-0.3-0.5l-1.2,0.1h-0.9h-0.9v-0.9l-0.2-0.2l0.3-0.4l0.1-0.7v-2.4V23
			v-0.3h0.2h1.3l0.4-0.1h0.1l0.6,0.2H103.5z M115,20.5h-0.2h-0.9v0.2l-0.1,0.7l-0.1,0.1l-1.3,3.2l0.1,0.3l-0.4,0.3l-1.4,3.2
			l-0.2,0.1v1.5l0.6,1.2l0.9,2l0.7,1.5h0.3l-0.1,0.4l0.8,2.1v0.8h2.2v-0.3l0.3-0.8l1.3-3.1l0.6-1.2v-0.4l0.2-0.2l1.2-2.4l0.1-1.3
			l-0.8-1.8l-0.6-1.4H118l-0.1-0.6l-1.2-3l-0.5-1.3L115,20.5z M115.1,35.2l-1.1-2.8l-0.5-1l-0.5-0.3l0.2-0.3l-0.2-0.7l-0.3-0.8V29
			l0.8-2.1l-0.2-0.4l0.3-0.1l1.3-3.5l0.1,0.5l0.6,1.5l0.4,0.3l-0.2,0.3l0.9,2.4l0.3,0.8l0.2,0.6l-1.2,2.9v0.4l0,0l-0.3,0.3l-0.8,2.5
			L115.1,35.2z M125.9,35.9l0.8-1.7l2.5-3.8l0.4-0.7v-1.8l-0.4-0.6l0,0l-1.8-2.4l-0.6-1.1L126,23l-0.3-0.8l-1.5-2l-1.3,0.4l-1,0.3
			v0.9L122,23l0.2,0.3l-0.2,0.5v6.3l0.1,0.9l-0.1,5.4l0,0V38l1.6,0.2l0.8,0.2L125.9,35.9z M124.2,26.9l-0.1-3.5l0.1,0.2l2.4,3.8
			l0.5,0.4l0.1,0.6l0.4,0.6l-0.4,0.7l-0.8,1.3l-1,1.9l0.2,0.2l-0.4,0.2l-1.1,1.7l0,0v-1.3l0.1-4.8l-0.4-1.1L124.2,26.9z M132.1,27.8
			l-0.1,1.3l-0.1,0.7v4.5v0.9l0.3,0.4l-0.3,0.5l-0.2,2.1h1.1h0.5l1.1-0.3V37v-0.5v-0.4v-6.6l-0.3-0.2l0.2-0.5v-0.6l-0.1-0.9l0.1-1.2
			l0.1-3.1l0.1-0.6l0.1-1.8l-1.6-0.1l-1.1,0.1l0.1,1.2l0.2,0.1l-0.2,0.4l0.1,4.8L132.1,27.8z M145.8,36.1v-0.8l-0.2-5.3l-0.3-0.8
			l0.2-1l0.2-5.9v-1.6l-1-0.2h-1.4v1.9l0.2,0.3l-0.2,0.7v2.1l-0.8-1.3l-0.2-0.1l-0.6-1l-2.2-3l-1.9,0.5v1.2l0.1,2.5l0.1,1.4l-0.1,5
			l0.2,0.5l-0.2,0.7l-0.1,3.4v0.4l0.1,0.2l-0.2,1.9l1,0.2h1.4v-1.5l-0.1-0.3v-2.5l-0.2-0.9l0.1-0.9v-5.5l-0.3-0.3l0,0l0.3-0.9v-1.3
			l0.6,0.9l1,1.4L142,27l0.3,0.5l0.3,0.4l0.4,0.6V31l0.1,0.5l-0.1,0.1v2.3v2.3v1.9h0.8h1.3l0.3-0.8L145.8,36.1z M160.1,29l0.8-0.7
			l0.7-0.9v-1.7l-2.5-2.6l-0.5-0.2l-0.1-0.4l-2.2-2.2l-0.8,0.3l-1.2,0.5v1.6l0.1,1v3.9v0.1v6l0.3,0.3l-0.2,0.7l-0.3,3.4l1.4,0.1
			l1.2-0.1l-0.1-3l-0.4-0.3l0.4-0.6v-1.7l0.2-0.2l1.6-1.8L160.1,29z M156.8,27.3l-0.3-0.5l0.2-0.7v-1.2v-1.7l1.4,1.6l0.2,0.1
			l0.2,0.3l1,1.2l-0.4,0.6l-0.2,0.6l-0.3-0.1l-1.2,1.4l-0.7,0.7v-2.3C156.7,27.3,156.8,27.3,156.8,27.3z M166.2,30.8l1,1.9l0.2,0.6
			l0.9,1.7l0.3,0.1v0.4l0.8,1.9l0.6,0.9l1.9-1.1v-0.7l-0.8-0.8l-0.4-0.9l0,0l-0.3-0.7l-0.1-0.1v-0.3l-1-1.6
			c-0.2-0.2-0.3-0.4-0.5-0.6v-0.3c-0.1-0.3-0.4-0.7-0.6-1l0.7-0.9l0.4-0.5l0.8-0.9l1.1-1.3l0.2-1.4l-1.2-1.1l-0.4,0.1l-0.1-0.6
			l-4-3.4l-1.9,0.8l0.1,2.1l0.1,4.6l-0.2,0.5v1.2l0.1,2.8v0.9l0.2,0.3l-0.4,0.9l-0.1,3.8l1.6,0.1l1-0.4v-2l-0.1-0.2l-0.1-2.4v-2.6
			L166.2,30.8z M166.1,28.6l-0.1-2.1v-0.3v-0.1l-0.1-0.4l0.2-0.5V25v-1.8l2.2,2.2l0.2,0.1l0.5,0.6l-0.3,0.3
			c-0.3,0.4-0.9,1.2-1.2,1.6l-1.2,1.5l-0.2,0.1L166.1,28.6z M177,20.5h-0.2h-0.9v0.2l-0.1,0.7l-0.1,0.1l-1.3,3.2l0.1,0.3l-0.4,0.3
			l-1.3,3.1l-0.2,0.1V30l0.6,1.2l0.9,2l0.7,1.5h0.3l-0.1,0.4l0.8,2.1V38h2.2v-0.3l0.3-0.8l1.3-3.1l0.6-1.2v-0.4l0.2-0.2l1.2-2.4
			l0.1-1.3l-0.8-1.8l-0.6-1.4h-0.2l-0.1-0.6l-1.2-3l-0.5-1.3L177,20.5z M177.1,35.2l-1.1-2.8l-0.5-1l-0.5-0.3l0.2-0.3l-0.2-0.7
			l-0.3-0.8V29l0.8-2.1l-0.2-0.4l0.3-0.1l1.3-3.5l0.1,0.5l0.6,1.5l0.4,0.3l-0.2,0.3l0.9,2.4l0.3,0.8l0.2,0.6l-1.2,2.9v0.4l0,0
			l-0.3,0.3l-0.8,2.5L177.1,35.2z M184.4,27.8l-0.1,1.3v1.5v0.3v0.9l-0.1,2.6v0.2l-0.4,0.5l-1.1,0.7l-1.1,0.4v1.2l1.3,1l1.8-1.4
			v-0.5l0.6-0.1l0.8-0.7l0.6-0.5l-0.3-4.1l-0.2-0.7l0.3-0.2l-0.1-6.7l0.3-2.1l-0.3-0.8h-2.3v1.3l0.4,0.2l-0.3,0.4l0.1,4.1
			L184.4,27.8z M196.2,22.8v-1.3v-0.9h-2.4l-0.9,0.2l-0.3-0.2h-1.4l-1.1,0.1l0.1,1.7l0.3,0.3l-0.3,0.4v1.2v1.9V28l-0.1,0.9l0.2,2.4
			l-0.1,0.2v1.3v0.6l0.2,0.3l-0.3,0.6v1.1v0.3l-0.1,1.6l0.1,1h1.8l0.2-0.1h0.8l1.4,0.1h1.6l0.6-0.2l0.1-0.9V36h-1.2l-0.6,0.2h-1.9
			h-0.2h-0.2v-2.3l0,0l0.1-0.2l-0.1-0.7l0.1-2.5h0.4h1.5h1.2v-1l0.1-0.7l-0.3-0.6l-1.2,0.1h-0.9h-0.9v-0.9l-0.2-0.2l0.3-0.4l0.1-0.7
			v-2.4v-0.6v-0.3h0.2h1.3l0.4-0.1h0.1l0.6,0.2L196.2,22.8L196.2,22.8z M198.1,31.1l0.9,1.6l1.1,1l-0.2,0.4l1.8,2.8v0.3l0.8,1.3
			l0.8-0.5l1.2-1l-0.6-0.9l-1.2-1.6l-1.1-1.9l-0.9-1.4l-0.2-0.5l-0.3-0.3l-0.2-0.5l-0.4-0.7l0.3-0.6l0.5-0.8l0.8-1.2l1.4-2.1
			l0.1-0.6l0.4-0.3l0.7-0.9l0.7-1.2l-1.8-1.3l-0.8,1v0.2l-1.3,2.2v0.1l-0.6,1v0.5l-0.9,0.8l-1.6,2.6v1.5L198.1,31.1z M210.8,20.6
			l-1.1,0.1c-0.3,0-0.6,0-1,0c-0.2,0-0.4,0.2-0.6,0.2l-0.5-0.2l-2.3-0.1l-0.1,2l0.3,0.3h1.5c0.1,0,0.2,0,0.4-0.1l0.1-0.1l0.5,0.1
			l0.1,1l-0.1,1.5l0.1,1.1l-0.1,4.9l-0.1,3.4l0.2,0.2l-0.4,1.5v1.8l1.3,0.2l0.7-0.1l0.7-0.4l-0.2-1.7v-4.5l-0.3-0.5l0,0l0.2-1.4V28
			v-0.4c0-0.2,0-0.4,0-0.6c0-0.1,0-0.7,0-1v-1.8l-0.1-0.5l0.1-1h0.7h0.7l0.2,0.1h1.1l0.1-1.1l-0.1-1L210.8,20.6z"/>
	</g>
</g>
</svg>
